<svg width="26" height="26" viewBox="0 0 26 26" fill="none" xmlns="http://www.w3.org/2000/svg">
<path d="M13 0C20.1797 0 26 5.8203 26 13C26 20.1797 20.1797 26 13 26C5.8203 26 0 20.1797 0 13C0 5.8203 5.8203 0 13 0ZM13 2C6.92487 2 2 6.92487 2 13C2 19.0751 6.92487 24 13 24C19.0751 24 24 19.0751 24 13C24 6.92487 19.0751 2 13 2ZM19.1572 8.21094L19.8711 8.91211L11.8018 17.1221L11.1064 17.8301L10.3936 17.1406L6.14648 13.0352L7.53711 11.5977L11.0703 15.0127L18.4443 7.50977L19.1572 8.21094Z" fill="#1B2669"/>
</svg>
