<svg width="19" height="19" viewBox="0 0 19 19" fill="none" xmlns="http://www.w3.org/2000/svg">
<path d="M9.5 0C14.7467 0 19 4.25329 19 9.5C19 14.7467 14.7467 19 9.5 19C4.25329 19 0 14.7467 0 9.5C0 4.25329 4.25329 0 9.5 0ZM9.5 1.40039C5.02649 1.40039 1.40039 5.02649 1.40039 9.5C1.40039 13.9735 5.02649 17.5996 9.5 17.5996C13.9735 17.5996 17.5996 13.9735 17.5996 9.5C17.5996 5.02649 13.9735 1.40039 9.5 1.40039ZM14.499 6.49023L8.60254 12.4902L8.11621 12.9854L7.61719 12.5029L4.51367 9.50293L5.48633 8.49707L8.09082 11.0146L13.501 5.50977L14.499 6.49023Z" fill="#1B2669"/>
</svg>
