<svg width="224" height="49" viewBox="0 0 224 49" fill="none" xmlns="http://www.w3.org/2000/svg">
<path d="M60.4474 39V12.0105H74.1098C76.82 12.0105 78.8316 12.6531 80.1448 13.9383C81.4859 15.1956 82.1564 16.9837 82.1564 19.3027C82.1564 20.7555 81.877 21.9709 81.3182 22.9488C80.7594 23.8987 80.0051 24.6391 79.0551 25.17C80.3124 25.5611 81.3042 26.2177 82.0307 27.1397C82.785 28.0338 83.1622 29.3609 83.1622 31.1211C83.1622 33.7194 82.4218 35.6892 80.941 37.0303C79.4882 38.3434 77.3787 39 74.6127 39H60.4474ZM66.1052 23.2002H73.0621C74.4311 23.2002 75.409 22.9069 75.9957 22.3201C76.5825 21.7055 76.8758 20.8533 76.8758 19.7637C76.8758 18.5623 76.5685 17.6682 75.9538 17.0815C75.3671 16.4947 74.2635 16.2014 72.643 16.2014H66.1052V23.2002ZM66.1052 34.851H73.2716C74.6966 34.851 75.7443 34.5576 76.4148 33.9709C77.0854 33.3842 77.4207 32.3504 77.4207 30.8696C77.4207 29.6682 77.0854 28.7741 76.4148 28.1874C75.7722 27.6007 74.5988 27.3073 72.8945 27.3073H66.1052V34.851ZM92.4972 39.4191C91.2399 39.4191 90.0664 39.1956 88.9768 38.7485C87.9151 38.2736 87.049 37.5891 86.3784 36.695C85.7358 35.773 85.4145 34.6275 85.4145 33.2584C85.4145 31.3027 86.099 29.7381 87.4681 28.5646C88.865 27.3911 90.9186 26.8044 93.6287 26.8044H99.496V26.2596C99.496 25.0303 99.1468 24.1641 98.4483 23.6612C97.7777 23.1583 96.4087 22.9069 94.3412 22.9069C92.0781 22.9069 89.8988 23.2561 87.8033 23.9546V19.9732C88.7253 19.61 89.8429 19.3166 91.1561 19.0931C92.4972 18.8417 93.95 18.7159 95.5146 18.7159C98.5042 18.7159 100.809 19.3306 102.43 20.5599C104.078 21.7613 104.902 23.7031 104.902 26.3853V39H99.9989L99.7056 37.1979C98.9232 37.8964 97.9593 38.4412 96.8138 38.8324C95.6683 39.2235 94.2294 39.4191 92.4972 39.4191ZM94.0478 35.6892C95.3051 35.6892 96.3947 35.4796 97.3167 35.0605C98.2387 34.6414 98.9652 34.1106 99.496 33.468V30.3248H93.7544C91.5472 30.3248 90.4436 31.2328 90.4436 33.0489C90.4436 34.8091 91.645 35.6892 94.0478 35.6892ZM114.152 39.4191C112.224 39.4191 110.813 38.9721 109.919 38.078C109.053 37.1839 108.62 35.759 108.62 33.8033V10.7532H114.278V33.3423C114.278 34.0407 114.418 34.5297 114.697 34.8091C114.976 35.0605 115.381 35.1863 115.912 35.1863C116.639 35.1863 117.295 35.0885 117.882 34.8929V38.7905C116.82 39.2095 115.577 39.4191 114.152 39.4191ZM127.079 39.4191C124.788 39.4191 123.084 38.8184 121.967 37.617C120.877 36.4156 120.332 34.7811 120.332 32.7136V23.4936H117.524V19.135H120.332V14.8603L125.99 13.1839V19.135H131.019L130.684 23.4936H125.99V32.3364C125.99 33.4261 126.241 34.1804 126.744 34.5995C127.247 34.9907 128.029 35.1863 129.091 35.1863C129.873 35.1863 130.684 35.0466 131.522 34.7672V38.6647C130.907 38.9162 130.237 39.0978 129.51 39.2095C128.784 39.3492 127.974 39.4191 127.079 39.4191ZM134.97 15.4889V11.0465H141.131V15.4889H134.97ZM135.431 39V23.326H132.456L132.959 19.135H141.089V39H135.431ZM155.21 39.4191C151.662 39.4191 148.938 38.539 147.038 36.7788C145.166 35.0186 144.23 32.4482 144.23 29.0675C144.23 25.5751 145.236 22.9767 147.247 21.2724C149.287 19.5681 151.997 18.7159 155.378 18.7159C156.775 18.7159 157.976 18.8137 158.982 19.0093C159.988 19.2049 160.966 19.5262 161.916 19.9732V24.0384C161.217 23.7031 160.407 23.4377 159.485 23.2421C158.563 23.0466 157.571 22.9488 156.509 22.9488C154.386 22.9488 152.765 23.3958 151.648 24.2899C150.53 25.156 149.971 26.7485 149.971 29.0675C149.971 31.1909 150.474 32.7416 151.48 33.7194C152.514 34.6973 154.176 35.1863 156.467 35.1863C157.445 35.1863 158.395 35.0885 159.317 34.8929C160.267 34.6973 161.147 34.404 161.957 34.0128V38.2037C160.086 39.014 157.836 39.4191 155.21 39.4191ZM174.626 39.4191C170.91 39.4191 168.186 38.525 166.454 36.7369C164.721 34.9208 163.855 32.3644 163.855 29.0675C163.855 25.7707 164.721 23.2282 166.454 21.44C168.214 19.624 170.938 18.7159 174.626 18.7159C178.342 18.7159 181.066 19.624 182.798 21.44C184.558 23.2282 185.438 25.7707 185.438 29.0675C185.438 32.3644 184.572 34.9208 182.84 36.7369C181.108 38.525 178.37 39.4191 174.626 39.4191ZM174.626 34.5995C176.442 34.5995 177.741 34.1944 178.523 33.3842C179.306 32.546 179.697 31.1071 179.697 29.0675C179.697 27.0279 179.306 25.603 178.523 24.7928C177.741 23.9546 176.442 23.5355 174.626 23.5355C172.838 23.5355 171.552 23.9546 170.77 24.7928C169.988 25.603 169.597 27.0279 169.597 29.0675C169.597 31.1071 169.988 32.546 170.77 33.3842C171.552 34.1944 172.838 34.5995 174.626 34.5995ZM198.467 39.4191C194.751 39.4191 192.027 38.525 190.294 36.7369C188.562 34.9208 187.696 32.3644 187.696 29.0675C187.696 25.7707 188.562 23.2282 190.294 21.44C192.054 19.624 194.779 18.7159 198.467 18.7159C202.183 18.7159 204.907 19.624 206.639 21.44C208.399 23.2282 209.279 25.7707 209.279 29.0675C209.279 32.3644 208.413 34.9208 206.681 36.7369C204.949 38.525 202.21 39.4191 198.467 39.4191ZM198.467 34.5995C200.283 34.5995 201.582 34.1944 202.364 33.3842C203.146 32.546 203.538 31.1071 203.538 29.0675C203.538 27.0279 203.146 25.603 202.364 24.7928C201.582 23.9546 200.283 23.5355 198.467 23.5355C196.678 23.5355 195.393 23.9546 194.611 24.7928C193.829 25.603 193.437 27.0279 193.437 29.0675C193.437 31.1071 193.829 32.546 194.611 33.3842C195.393 34.1944 196.678 34.5995 198.467 34.5995ZM217.907 39.4191C215.979 39.4191 214.568 38.9721 213.674 38.078C212.808 37.1839 212.375 35.759 212.375 33.8033V10.7532H218.033V33.3423C218.033 34.0407 218.172 34.5297 218.452 34.8091C218.731 35.0605 219.136 35.1863 219.667 35.1863C220.394 35.1863 221.05 35.0885 221.637 34.8929V38.7905C220.575 39.2095 219.332 39.4191 217.907 39.4191Z" fill="white"/>
<path d="M8.3455 43.884L18.5669 29.5552L28.1319 29.5552L38.3533 43.884L30.1949 48.5974L25.0373 36.5311L21.6614 36.5311L16.5976 48.5974L8.3455 43.884ZM46.793 29.6495L29.2572 27.9526L24.4747 19.5627L31.7891 3.53711L39.8537 8.25053L32.0704 18.8086L33.7583 21.7309L46.6054 20.2226L46.793 29.6495ZM15.0035 3.53711L22.3179 19.5627L17.5354 27.9526L-0.000413129 29.6495L0.0933602 20.2226L12.9404 21.7309L14.6284 18.8086L6.84511 8.3448L15.0035 3.53711Z" fill="white"/>
</svg>
