<svg width="325" height="312" viewBox="0 0 325 312" fill="none" xmlns="http://www.w3.org/2000/svg">
<style>
  @keyframes balticool-spin {
    from { transform: rotate(0deg); }
    to { transform: rotate(360deg); }
  }

  .rotating-symbol {
    transform-origin: 162.5px 156px;
    transform-box: fill-box;
    animation: balticool-spin 12s linear infinite;
  }
</style>
<g class="rotating-symbol">
  <path d="M155.514 112.168L122.809 169.143L122.552 169.591L122.037 169.641L2.11718 181.164L1.01073 181.27L1.02148 180.158L1.66308 116.142L1.67382 115.029L2.77832 115.158L89.9844 125.324L100.864 106.618L48.0352 36.0898L47.3633 35.1933L48.3301 34.6269L104.122 1.97851L105.074 1.42089L105.535 2.42382L155.556 111.253L155.771 111.721L155.514 112.168ZM264.804 277.701L209.012 309.709L208.039 310.268L207.596 309.237L172.586 227.9L150.821 227.9L116.449 309.231L116.013 310.266L115.035 309.712L58.6025 277.703L57.6338 277.154L58.2832 276.25L128.184 178.944L128.482 178.528L194.919 178.528L195.219 178.944L265.118 276.25L265.765 277.149L264.804 277.701ZM321.926 181.164L202.006 169.641L201.491 169.591L201.234 169.143L168.529 112.168L168.272 111.721L168.487 111.253L218.508 2.42382L218.967 1.4248L219.918 1.97656L275.068 33.9853L276.037 34.5469L275.369 35.4463L222.536 106.615L233.419 125.324L320.623 115.158L321.717 115.03L321.738 116.132L323.021 180.148L323.044 181.271L321.926 181.164Z" stroke="#424E93" stroke-width="2"/>
</g>
</svg>
